<svg width="17" height="18" viewBox="0 0 17 18" fill="none" xmlns="http://www.w3.org/2000/svg">
<path d="M1.16927 17.3346C0.948257 17.3346 0.736296 17.2468 0.580015 17.0906C0.423735 16.9343 0.335938 16.7223 0.335938 16.5013V1.5013C0.335938 1.28029 0.423735 1.06833 0.580015 0.912046C0.736296 0.755766 0.948257 0.667969 1.16927 0.667969H12.8359C13.057 0.667969 13.2689 0.755766 13.4252 0.912046C13.5815 1.06833 13.6693 1.28029 13.6693 1.5013V4.0013H12.0026V2.33464H2.0026V15.668H12.0026V14.0013H13.6693V16.5013C13.6693 16.7223 13.5815 16.9343 13.4252 17.0906C13.2689 17.2468 13.057 17.3346 12.8359 17.3346H1.16927ZM12.0026 12.3346V9.83464H6.16927V8.16797H12.0026V5.66797L16.1693 9.0013L12.0026 12.3346Z" fill="#E50019"/>
</svg>
